<svg width="615" height="545" viewBox="0 0 615 545" fill="none" xmlns="http://www.w3.org/2000/svg">
<path d="M374.027 7.41462C396.831 10.8387 420.121 18.8023 432.265 22.5174C456.733 29.9961 496.454 53.242 510.48 64.392C517.115 69.6639 531.069 83.4718 536.471 90.4218C541.734 97.1924 551.788 111.859 558.204 120.894C568.413 135.808 580.436 158.021 590.636 178.463C602.028 201.302 602.809 207.917 606.253 227.011L613.785 260.67C614.493 266.49 615.08 287.84 602.547 290.832C590.02 293.825 578.438 288.043 572.977 279.595C565.421 267.901 566.464 251.305 557.918 232.308C551.254 216.953 548.339 194.638 537.698 178.589L529.352 164.476C514.583 141.739 499.19 123.693 490.009 111.922C481.924 102.033 466.826 88.5885 452.514 79.0244C439.278 70.9977 417.88 61.8458 402.447 57.1316C397.53 55.5311 376.481 49.3426 363.4 47.6014C345.649 45.6081 333.971 42.8 317.103 41.6117C296.277 40.1422 286.286 38.2895 259.272 41.4468C249.038 44.221 232.825 45.322 218.231 50.9043C206.446 55.7106 190.053 63.4754 173.995 72.9086C156.714 82.3854 130.481 101.766 113.084 118.314C95.5512 137.049 86.7825 147.103 74.6915 170.854C69.3372 182.605 58.9825 200.783 54.8067 213.616C51.9549 226.643 46.5132 250.941 47.4299 262.741C47.8421 283.882 45.9943 288.237 47.5802 305.518C47.6384 321.076 52.7454 331.863 54.8697 344.589C56.6885 353.382 65.1225 383.806 70.3411 390.868C94.0623 441.976 125.902 464.112 161.385 480.078C171.385 485.17 202.682 493.546 211.737 495.947C227.174 498.731 247.491 500.588 267.046 500.967C287.62 501.369 315.977 498.58 333.185 492.246C351.809 485.398 373.343 475.664 373.095 475.936C381.738 471.173 394.925 463.399 399.033 459.98C406.972 454.892 411.754 452.923 416.459 448.024C423.244 442.088 427.352 438.669 432.493 431.311C435.354 427.165 439.899 420.816 444.327 415.205C449.09 407.401 451.825 399.175 456.476 389C462.039 373.951 461.176 374.673 462.233 358.688C463.232 354.056 462.126 338.488 461.287 335.845C458.78 321.479 459.667 308.806 456.379 294.858C451.936 275.986 448.246 261.863 442.576 243.758C437.246 223.374 421.59 204.488 409.839 191C402.559 182.639 379.973 162.89 348.637 150.557C339.815 147.588 325.372 144.222 316.2 142.549C296.621 140.503 293.435 141.817 274.69 143.189C268.239 144.315 253.262 147.375 247.758 149.31C231.656 154.965 225.734 158.559 209.273 168.642C201.61 173.089 195.834 176.494 188.001 183.837C181.75 189.623 177.283 199.459 172.219 205.225C165.284 214.663 157.563 227.254 152.383 240.834C146.767 254.341 144.958 273.358 145.811 285.594C145.811 294.921 148.348 311.992 149.357 315.727C150.361 319.466 152.883 331.058 153.431 333.386C153.979 335.709 160.007 347.974 160.837 349.749C164.236 356.986 170.745 367.384 181.711 378.001C189.801 386.837 205.442 395.509 217.15 398.87C227.65 404.632 245.357 405.611 255.154 405.631C259.975 405.34 272.289 404.583 278.715 403.041C291.747 399.913 294.152 399.83 307.582 393.996C319.634 388.409 327.811 386.396 336.207 380.193C336.207 380.193 347.73 371.162 352.968 364.556C355.732 361.069 360.471 344.453 359.627 334.162C359.234 320.073 361.286 312.08 358.41 300.488C355.534 288.897 350.626 275.463 345.305 267.184C339.917 258.798 328.33 250.626 315.143 244.122C307.761 240.475 290.268 237.094 282.847 236.217C268.748 234.543 256.958 240.941 249.8 248.259C243.592 255.355 231.321 270.094 236.21 285.332C240.633 299.121 245.973 313.811 266.653 312.72C280.844 315.674 297.261 311.386 302.727 313.903C310.841 318.511 313.96 328.686 311.011 335.782C308.955 349.463 295.85 351.103 281.863 352.145C269.35 354.241 237.568 348.115 230.584 342.882C225.899 340.098 218.726 333.41 213.672 328.895C210.04 325.645 205.927 318.399 203.119 313.195C199.67 306.803 197.929 302.099 197.042 297.932C195.989 292.985 193.821 283.543 194.641 274.1C195.194 267.732 196.901 265.021 198.598 255.709C201.979 245.15 206.179 237.114 212.935 227.957C221.738 219.024 232.917 208.388 243.829 203.445C253.452 198.363 270.31 196.491 285.563 197.383C297.935 198.566 312.573 200.075 322.248 203.319C338.811 209.236 343.545 210.415 357.139 218.99C368.629 226.1 380.186 239.18 386.636 250.015C400.357 278.091 408.229 309.325 402.506 351.369C402.035 358.475 399.824 365.415 395.396 374.819C391.307 383.5 384.134 394.059 373.372 402.008C369.036 406.019 362.202 410.956 356.639 413.847C348.744 418.638 343.433 421.131 335.188 425.273C327.952 428.673 319.518 432.563 308.518 435.618C296.597 440.332 287.45 440.526 272.459 442.762C257.7 446.463 217.324 443.819 193.273 433.213C176.856 426.311 158.436 414.142 144.434 399.311C136.655 391.158 129.045 376.366 126.809 373.34C115.674 351.932 113.491 331.795 111.706 327.566C109.281 321.819 108.074 308.932 106.449 300.115C104.616 290.231 105.751 248.778 115.732 222.171C121.358 211.579 124.651 202.136 128.458 197.174C135.302 187.441 138.609 181.359 144.429 174.457C153.203 163.816 159.59 155.135 168.136 149.014C189.912 131.307 208.104 121.966 232.708 110.278C263.282 97.8277 272.463 100.403 301.398 100.864C314.416 100.975 333.36 105.069 342.672 106.766C359.967 109.07 369.875 113.236 381.573 116.5C394.081 119.992 401.312 125.565 411.575 131.768C420.024 137.224 429.966 144.698 436.533 150.765C453.333 163.084 461.438 176.033 471.734 191.936C473.601 194.604 485.828 220.663 487.778 227.918C488.68 231.551 491.449 241.983 493.224 248.08C495.509 257.75 496.614 266.316 499.161 277.228C501.44 288.47 505.32 309.698 507.003 329.54C509.831 346.558 505.301 381.299 502.628 391.964C496.677 411.848 486.269 436.118 465.715 459.49C456.985 469.839 447.702 477.861 436.979 486.567C428.778 493.41 421.741 497.392 409.072 504.958C391.865 515.225 378.77 521.783 354.651 531.211C344.83 534.363 332.458 538.51 319.12 541.27C293.284 543.656 266.736 545.945 237.757 542.502C208.774 539.053 179.742 530.886 162.592 525.619C153.13 522.069 134.797 514.382 127.11 510.245C122.11 507.703 105.343 496.238 102.496 493.478C91.0068 486.368 65.2923 462.186 48.6909 439.644C45.0534 432.679 31.973 411.781 29.1358 402.624C21.5941 387.138 16.3367 368.407 13.2473 360.405C9.98812 341.728 4.48341 329.7 2.33488 310.95C2.58222 306.536 1.44733 296.152 0.448242 290.405C1.90808 277.572 -0.0416067 265.476 2.50462 251.509C4.74046 239.718 7.70379 234.796 8.40703 224.14C9.09573 219.581 14.9642 205.87 16.5259 199.769C21.2594 189.72 22.438 181.441 28.6168 170.213C37.5214 152.715 46.8285 132.583 61.131 114.997C65.2147 109.545 76.7964 96.4648 80.7443 91.9301C90.0756 82.6037 95.5512 81.1293 106.134 71.7688C107.235 71.0753 114.224 63.1068 121.542 60.3666C133.672 50.9964 144.153 47.5578 155.696 39.0364C178.83 27.5129 187.264 23.6232 210.229 14.0688C223.498 9.33521 242.006 6.71622 248.67 4.13119C261.347 3.3455 274.214 -0.699367 287.552 0.105723C302.524 -0.0349274 317.612 1.03206 332.656 2.39975C342.836 3.0254 356.072 3.5201 374.027 7.41462Z" fill="#7954A1"/>
</svg>
